<svg xmlns="http://www.w3.org/2000/svg" width="1000" height="1000">
	<rect width="1000" height="1000" fill="#070707" rx="200" ry="200" />
	<g transform="matrix(21.875,0,0,21.875,158.90944528579712,171.92775608202646)">
	<svg xmlns="http://www.w3.org/2000/svg" xmlns:svgjs="http://svgjs.com/svgjs"
		xmlns:xlink="http://www.w3.org/1999/xlink" width="32" height="30">
		<svg xmlns="http://www.w3.org/2000/svg" width="32" height="30" fill="none" viewBox="0 0 32 30">
			<g clip-path="url(#a)">
				<path fill="#17CD8C"
					d="M18.713 29.81c.216.123.46.187.708.184a1.37 1.37 0 0 0 .668-.168l9.488-5.133c.983-.538 1.57-1.45 1.57-2.435v-5.7a.995.995 0 0 0-.522-.852l-.5-.301-.023-.017a2.69 2.69 0 0 0 1.044-2.082V7.602a.994.994 0 0 0-.514-.853l-2.52-1.542a1.413 1.413 0 0 0-1.376-.024L23.84 6.75V2.587a.986.986 0 0 0-.522-.853L20.797.19a1.413 1.413 0 0 0-1.376-.022L1.57 9.808c-.982.54-1.57 1.45-1.57 2.435v5.705a.993.993 0 0 0 .521.852l2.52 1.544a1.424 1.424 0 0 0 1.377.022l3.424-1.849v4.164a.987.987 0 0 0 .523.853l2.52 1.544c.216.124.46.188.709.185.233 0 .462-.057.668-.167l3.41-1.849v4.157a.99.99 0 0 0 .52.852l2.521 1.554ZM2.711 13.787c0-.925.555-1.768 1.48-2.273l16.937-9.147v4.39c0 .847-.472 1.636-1.27 2.15L9.414 14.551a3.466 3.466 0 0 0-.198.116l-6.505 3.508v-4.388Zm7.842 4.734c0-.853.477-1.648 1.294-2.16l10.431-5.636c.072-.039.14-.082.21-.124l5.97-3.227v4.388c0 .925-.555 1.768-1.48 2.273l-.029.016a1.228 1.228 0 0 0-.209.09l-9.49 5.134c-.087.046-.17.098-.251.152l-6.442 3.482-.004-4.388Zm7.823 4.74c0-.831.455-1.608 1.23-2.122l8.837-4.774v4.364c0 .924-.555 1.767-1.48 2.272l-8.592 4.649.006-4.388Z" />
			</g>
			<defs>
				<clipPath id="a">
					<path fill="#fff" d="M0 0h31.148v30H0z" />
				</clipPath>
			</defs>
		</svg>
	</svg>
</g>
</svg>
