<svg xmlns="http://www.w3.org/2000/svg" fill="none" viewBox="0 0 32 30">
	<g clip-path="url(#a)">
		<path fill="#17CD8C"
			d="M18.71 29.81a1.4 1.4 0 0 0 1.38.02l9.49-5.14a2.81 2.81 0 0 0 1.57-2.43v-5.7a1 1 0 0 0-.52-.85l-.5-.3-.03-.02a2.69 2.69 0 0 0 1.05-2.08V7.6a1 1 0 0 0-.52-.86L28.11 5.2a1.41 1.41 0 0 0-1.37-.03l-2.9 1.57V2.59a.99.99 0 0 0-.52-.86L20.8.2a1.41 1.41 0 0 0-1.38-.02L1.57 9.8A2.82 2.82 0 0 0 0 12.24v5.7a1 1 0 0 0 .52.86l2.52 1.54a1.42 1.42 0 0 0 1.38.03l3.42-1.85v4.16a.99.99 0 0 0 .53.85l2.52 1.55c.21.12.46.19.7.18.24 0 .47-.05.67-.16l3.41-1.85v4.15a1 1 0 0 0 .52.86l2.52 1.55Zm-16-16.02c0-.93.56-1.77 1.48-2.28l16.94-9.14v4.39a2.6 2.6 0 0 1-1.27 2.15L9.4 14.55l-.2.12-6.5 3.5V13.8Zm7.84 4.73c0-.85.48-1.65 1.3-2.16l10.43-5.64c.07-.03.14-.08.2-.12l5.98-3.23v4.4c0 .92-.56 1.76-1.48 2.26l-.03.02-.21.09-9.49 5.14c-.09.04-.17.1-.25.15l-6.44 3.48v-4.39Zm7.83 4.74c0-.83.45-1.6 1.23-2.12l8.83-4.78v4.37c0 .92-.55 1.77-1.48 2.27l-8.59 4.65v-4.39Z" />
	</g>
	<defs>
		<clipPath id="a">
			<path fill="#fff" d="M0 0h31.15v30H0z" />
		</clipPath>
	</defs>
</svg>
