<svg xmlns="http://www.w3.org/2000/svg" version="1.0" viewBox="0 0 1024 1024">
	<path
		d="M631.5 33.5c-2.7.7-7.9 2.9-11.5 4.8-3.6 1.9-9.4 5-13 6.8-3.6 1.8-6.7 3.6-7 3.9-.3.3-3.6 2.1-7.5 4-3.8 1.9-7.2 3.8-7.5 4.1-.3.3-2.3 1.4-4.5 2.5-6.4 3.3-21.6 11.4-26.4 14.2-2.4 1.4-7.9 4.4-12.1 6.6l-22.6 12.1c-8.1 4.4-15.7 8.4-16.8 9-1.2.5-2.3 1.2-2.6 1.5-.3.3-2.1 1.3-4 2.2-1.9 1-5.9 3.1-8.7 4.7-2.9 1.7-5.3 2.7-5.3 2.3 0-.4-.4-.3-.8.3-.8 1.1-2.1 1.9-10.3 6.1-3 1.5-5.6 3-5.9 3.3-.3.4-2.7 1.7-5.5 3-2.7 1.3-6.2 3.3-7.7 4.3-1.6 1.1-2.8 1.6-2.8 1.1 0-.4-.4-.4-.8.2-.7.9-9.2 5.6-20.7 11.5-2.7 1.4-5.2 2.7-5.5 3-.3.3-1.8 1.2-3.5 2-1.6.8-3.3 1.9-3.7 2.5-.4.5-.8.6-.8.2 0-.5-1.2 0-2.7 1.1-1.6 1-4.1 2.6-5.8 3.4-3.8 1.9-18.9 9.9-23.5 12.5-1.9 1.1-8.4 4.6-14.5 7.8-6 3.2-11.3 6.3-11.7 6.9-.4.6-.8.8-.8.4s-2.3.6-5 2.2c-2.8 1.7-5.5 3-6 3-.6 0-1 .5-1 1.2 0 .6-.3.9-.6.6-.3-.4-3.6 1.1-7.2 3.2-3.7 2-10.3 5.6-14.7 8-8.9 4.7-17.4 9.3-31.4 16.9-5.2 2.8-9.7 5.1-10.2 5.1-.4 0-.9.3-1.1.7-.1.5-3.7 2.5-7.8 4.7-18.5 9.5-43.9 23.4-45.7 24.8-.7.6-1.3.7-1.3.2 0-.5-.4-.4-.8.1-.4.6-2.9 2.2-5.7 3.5-2.7 1.4-5.2 2.7-5.5 3-.3.3-3.5 2.1-7.2 4s-6.8 3.9-6.8 4.3c0 .5-.4.6-.8.3-.5-.3-2.4.5-4.3 1.6-1.9 1.2-5.6 3.3-8.4 4.8-17.9 9.4-29.9 15.9-35.2 19.2-1.8 1.1-3.3 1.7-3.3 1.4 0-.3-1.6.6-3.6 1.9-2 1.4-4.1 2.5-4.7 2.5-.6 0-1.8.6-2.6 1.4-.9.7-6.3 3.7-12.1 6.7-5.8 2.9-10.7 5.6-11 5.9-.3.3-4.3 2.5-9 4.9-4.7 2.5-8.6 4.8-8.8 5.3-.2.4-1 .8-1.7.8-.8 0-3.7 1.3-6.5 3-2.8 1.6-5.5 3-6 3-.4 0-1 .3-1.2.7-.1.5-3.7 2.5-7.8 4.6-8.9 4.6-13.3 7-14 7.7-.3.3-1.2.6-2 .8-3.1.7-20.8 13.2-26.5 18.9-7.5 7.3-10.9 11.5-14.6 17.8-1.7 2.7-3.4 5.7-3.9 6.5-1.7 2.8-5.5 12.7-6.6 17.5-.2.5-.6 2.1-1.1 3.5-.4 1.4-.9 47-1 101.3-.3 87.3-.2 99.6 1.2 105 .9 3.4 1.9 6.4 2.3 6.7.4.3 1.8 2.2 3.2 4.2 1.4 2.1 2.8 3.8 3.2 3.8.4 0 1.3.6 2 1.3 1.4 1.4 11.2 7.8 13.8 9 .8.4 2.7 1.5 4.1 2.5 1.5.9 5.5 3.4 9 5.5s8.4 5.1 10.9 6.7a160 160 0 0 0 6.5 4c1.1.6 3.6 2 5.6 3.3 1.9 1.2 6.9 4.2 11 6.7 4.1 2.4 9.2 5.7 11.3 7.2 2.1 1.5 4.5 2.8 5.2 2.8.7 0 1.4.4 1.6.8.2.5 2.8 2.2 5.8 3.9 12.5 7.1 28.1 8.1 40.5 2.7 2.2-1 4.6-1.9 5.4-2 .8-.2 1.7-.7 2-1.1.8-1.2 25.3-14.4 26.5-14.2.5 0 1.2-.3 1.5-.8.6-1 7.4-4.8 34.6-19.3 19.1-10.2 30-16.1 37.3-20.2 2.9-1.7 5.5-2.8 5.7-2.6.3.2.5 31.6.5 69.7s.4 70 .9 70.9c.5.9 1.5 3 2.2 4.7 2.4 5.5 6.8 10.2 13.2 14.4 3.5 2.2 6.7 4.1 7.2 4.1s1.8.8 2.9 1.8c1.2 1 7.7 5.2 14.6 9.3 6.9 4.1 12.7 7.7 12.8 8.1.2.5.8.8 1.4.8.5 0 2.9 1.3 5.3 3s4.6 3 5 3c.3 0 3.3 1.8 6.6 4s6.3 4 6.5 4c.3 0 2.5 1.3 4.9 3 2.4 1.6 4.7 3 5.1 3 .4 0 1.5.6 2.3 1.4 3 2.7 15.6 8.4 20.1 9.2 5.1.8 13.3.8 17 0 1.4-.3 3.7-.8 5.3-1.2 1.5-.3 5.1-1.8 8-3.3 2.8-1.6 8.6-4.6 12.8-6.8 4.1-2.2 8.6-4.7 10-5.5 1.3-.9 6.2-3.6 10.9-6 19.3-10.2 26.5-14.2 27.1-15.1.3-.5.9-.8 1.3-.8.9.1 4-1.2 4.6-1.8.3-.3 1.9-1.3 3.6-2.2 11.4-5.9 23.1-12.3 24.3-13.2.7-.6 1.9-1.2 2.5-1.3.7-.1 3-1.3 5.2-2.6a37 37 0 0 1 5.4-3c1.3-.5 1.5 7.5 1.5 68.4 0 38 .3 69.2.7 69.5.5.2.8 1.3.8 2.3 0 4.9 9.3 16.6 15.1 19 1.6.7 2.9 1.6 2.9 2.1s.4.9 1 .9c.5 0 11.2 6.4 23.7 14.2 12.5 7.8 23.8 14.6 25 15.2 1.3.6 2.3 1.4 2.3 1.8 0 .5.4.8.9.8s5.2 2.7 10.4 6c5.3 3.3 10.1 6 10.6 6 .6 0 1.1.4 1.1.8 0 1 10.5 5.8 14.6 6.8 5.6 1.2 17.8 1.1 22.3-.3 5.5-1.6 18.8-8 19.6-9.4.4-.5 1-.7 1.5-.4.4.3 1.3-.2 2-1s1.6-1.5 2-1.5c.5 0 3.9-1.7 7.7-3.8 3.7-2.2 10.9-6 15.8-8.7 5-2.6 11.3-6 14-7.5 2.8-1.5 7.9-4.3 11.5-6.2 3.6-2 8.5-4.7 11-6 2.5-1.4 8.6-4.7 13.5-7.3 5-2.6 12-6.5 15.8-8.6 3.7-2.1 6.7-3.5 6.7-3.1 0 .4.4.2.8-.4.6-.9 6.3-4.1 24.2-13.5 2.5-1.3 4.8-2.9 5.2-3.4.4-.6.8-.6.8-.1s.9.1 2-.9 2-1.4 2-.9c0 .5.4.4.8-.2.4-.5 2.3-1.8 4.2-2.8 7.2-3.5 16.5-8.7 17.5-9.7.5-.5 1.6-.9 2.4-.9.8 0 2.2-.6 3-1.3.9-.8 5.7-3.6 10.6-6.2 5-2.7 11-5.9 13.5-7.3 2.5-1.3 9.2-4.9 15-8 5.8-3 10.7-5.9 11-6.2.3-.4 1.6-1.1 3-1.5 1.4-.4 3.6-1.6 4.9-2.6 1.3-1.1 2.7-1.9 3-1.9.4 0 6.9-3.4 14.4-7.5 7.6-4.1 14.2-7.5 14.6-7.5.5 0 1.1-.3 1.3-.8.2-.4 2.6-1.9 5.3-3.3 2.8-1.4 7.9-4.2 11.5-6.1 3.6-1.9 9.9-5.3 14-7.4 4.1-2.2 7.7-4.1 8-4.4.3-.3 2.6-1.8 5.1-3.3 8.4-4.8 18-13.3 25.6-22.4 4.4-5.2 11.7-17.3 10.5-17.3-.4 0-.2-.4.4-.8 1.6-1.1 5.4-12.8 6.8-21.2.9-5.6 1.2-31.5 1.2-104.5l-.1-97-2.8-5.9c-3.9-8.5-8.6-12.5-25.9-22.2-3.8-2.2-3.9-3-.8-6.2 1.7-1.8 3.4-3.2 3.8-3.3 2.2-.1 17.2-21.6 17.5-25 .1-1.1.4-1.9.8-1.9s1-1 1.4-2.3c.4-1.2.9-2.7 1.1-3.2a159 159 0 0 0 4.1-16.5c.4-2.5.7-48.6.7-102.5l.1-98-2.7-5.5c-4.8-9.7-5.1-9.9-39-30.6-5.3-3.3-12.5-7.7-16-9.8-3.4-2.2-6.5-3.8-6.7-3.7-.2.2-.7-.1-1-.6-.6-.9-25.8-16.4-34.5-21.3-2.1-1.2-5.1-2.3-6.5-2.5-1.4-.2-3.7-.7-5.1-1.2-2.7-1-11.2-.9-17.5.1-3.5.6-27.2 11.8-28.5 13.5-.3.3-2.9 1.7-5.7 3-2.9 1.4-5.3 2.9-5.3 3.4 0 .6-.3.8-.6.4-.3-.3-2.3.4-4.3 1.6-2 1.2-5.6 3.3-8.1 4.5-2.5 1.3-8.1 4.3-12.5 6.8-4.4 2.4-10 5.4-12.5 6.6-2.5 1.2-4.7 2.4-5 2.7-.3.4-2.5 1.6-5 2.9-2.5 1.2-7.3 3.8-10.7 5.7l-6.3 3.4-.1-3.7v-68c-.1-38.5-.5-65.7-1.1-68-2.5-9.6-6.7-15-16.6-21.4-3.7-2.3-6.9-4.3-7.2-4.3-.3 0-1.9-.9-3.5-2a93 93 0 0 0-10.2-6.2c-1.8-.9-3.3-2-3.3-2.5 0-.4-.4-.8-.9-.8-.6 0-5.3-2.7-10.6-6s-10-6-10.6-6c-.5 0-.9-.5-.9-1 0-.6-.7-1-1.5-1s-1.5-.4-1.5-.8-1.2-1.3-2.7-2c-5.1-2.3-7.3-3.7-7.3-4.4 0-.5-.4-.8-.9-.8s-4.5-2.2-8.8-5c-8.1-5.1-14.6-8.5-19.8-10.2-4.9-1.6-18.5-1.8-24-.3zM676 181.1c-.1 39.8-.3 73.9-.5 75.7-1.3 9.3-5.2 22.2-6.7 22.2-.6 0-.9.3-.5.6 1.7 1.7-9.7 17.7-18.4 25.9-7.7 7.2-20.2 15.8-22.5 15.4-.4 0-1 .3-1.3.8-.6.8-1.5 1.3-14.6 8.3-4.4 2.4-10.5 5.6-13.5 7.3-3 1.6-8.1 4.4-11.5 6.1-3.3 1.7-6.1 3.4-6.3 3.8-.2.5-.9.8-1.6.8-.6 0-2.8 1.1-4.9 2.5-2 1.4-3.7 2.3-3.7 1.9 0-.4-.8 0-1.8.9-1 1-2.2 1.4-2.5 1-.4-.3-.7-.1-.7.5 0 .7-.9 1.2-1.9 1.2-1.1 0-2.1.4-2.3.8-.3.8-17.9 10.6-18.8 10.5-.3 0-1.7.8-3.2 1.8-1.4 1-2.8 1.9-3.1 1.9-.3 0-3.6 1.7-7.4 3.9-3.7 2.1-10.8 6-15.8 8.6-4.9 2.7-11.2 6.1-14 7.6-2.7 1.5-6.6 3.5-8.5 4.5-1.9 1-4.7 2.6-6.2 3.6-1.6 1.1-2.8 1.6-2.8 1.3 0-.3-1.3.3-2.9 1.4-1.6 1.2-3.4 2.1-3.9 2.1-.6 0-1.7.6-2.4 1.2-.7.7-3.8 2.5-6.8 4.1-3 1.5-8.6 4.4-12.5 6.5-3.8 2.1-10.4 5.7-14.5 7.9-12.5 6.7-19.2 10.4-25 13.6-3 1.7-8.2 4.4-11.5 6.1-3.3 1.6-6.2 3.3-6.5 3.6-.3.3-2.5 1.5-5 2.8-6.7 3.3-17.3 9.2-18.7 10.4-.7.6-1.3.7-1.3.3 0-.5-.8-.2-1.7.6-1 .8-4.5 2.8-7.8 4.4-3.3 1.7-6.1 3.3-6.3 3.7-.2.5-.8.8-1.2.8-.5 0-3.2 1.3-6 3-2.8 1.6-5.7 3-6.5 3-.7 0-1.5.4-1.7.8-.1.5-4.7 3.2-10 6-5.4 2.9-11.7 6.3-14 7.6-2.4 1.3-7.9 4.2-12.3 6.6-4.4 2.3-8.7 4.9-9.5 5.6-.8.7-1.8 1.3-2.3 1.3-1.4.1-7.2 3.4-7.9 4.5-.4.6-.8.7-.8.2 0-.5-.6-.4-1.2.2-1.3.9-8.5 4.9-22.3 12.2-3.8 2-9.5 5-12.5 6.7-3 1.6-9.1 4.9-13.5 7.3-4.4 2.3-10.2 5.5-13 7-2.7 1.5-9 4.9-14 7.5-4.9 2.6-10.3 5.6-12 6.5-1.6 1-6.4 3.5-10.5 5.7s-11.1 6-15.5 8.4c-4.4 2.3-9.3 4.9-11 5.8-1.6.8-3.2 1.7-3.5 2-.3.3-3.2 1.9-6.5 3.6-3.3 1.6-6.2 3.3-6.3 3.7-.2.5-1.2.8-2.2.8-1 0-2 .3-2.2.7-.1.5-3 2.2-6.3 3.9-3.3 1.8-8.2 4.4-11 5.9-2.7 1.5-7.2 3.9-10 5.3-2.7 1.5-5.3 3.1-5.7 3.7-.4.5-.8.7-.8.2 0-.4-1.8.4-3.9 1.7-2.1 1.4-4.2 2.2-4.5 1.9-.3-.4-.6-.2-.6.4 0 1.4-5.2 3.6-5.9 2.4-.8-1.2-.6-141.3.2-147.6 1.2-8.9 4.5-19.7 7.4-24.1.8-1.3 1.3-2.4.9-2.4-1 0 13.5-19.9 14.6-20 .3 0 2.2-1.5 4.1-3.4 5.2-5 15.1-11.7 25.2-17.1 5-2.6 11.7-6.2 15-8 3.3-1.8 9.6-5.2 14-7.5 4.4-2.4 10.1-5.6 12.8-7.2 2.6-1.5 5.9-3.1 7.2-3.4 1.4-.3 2.5-1 2.5-1.4 0-.4.8-1 1.8-1.3.9-.4 4.4-2.1 7.7-4 3.3-1.8 9.6-5.3 14-7.6 4.4-2.4 8.6-4.8 9.2-5.4.7-.5 1.3-.6 1.3-.1s.4.4.8-.1c.4-.6 2.5-2 4.7-3.1 10.2-5.4 16.1-8.7 17.3-9.7.6-.5 1.2-.6 1.2-.1s.4.4.8-.1c.4-.6 3.9-2.6 7.7-4.5 3.9-1.9 7.2-3.8 7.5-4.1.5-.7 5.6-3.4 11.5-6.3 1.7-.8 6.3-3.3 10.2-5.5 4-2.3 10.8-5.9 15-8.2 4.3-2.2 10.5-5.6 13.8-7.4 3.3-1.9 8.5-4.6 11.5-6.2 3-1.5 5.7-3 6-3.3.3-.3 2.5-1.6 5-2.8 2.5-1.2 7.7-3.9 11.5-6 3.9-2.1 10.6-5.8 15-8.2 4.4-2.3 10.3-5.5 13-7 2.8-1.5 9.1-4.9 14-7.5 5-2.7 12.1-6.5 15.8-8.7 3.8-2.1 7.1-3.8 7.3-3.8.2 0 4.6-2.3 9.6-5.1 5.1-2.9 13.5-7.4 18.7-10.2 5.2-2.7 10.8-5.8 12.5-6.8 1.7-1 5.6-3 8.6-4.5s5.7-3 6-3.3c.3-.3 3.4-2.1 7-3.9a372 372 0 0 0 11.5-6c2.8-1.6 8.9-4.9 13.7-7.5 4.7-2.5 10.1-5.5 12-6.5 1.9-1.1 7.9-4.3 13.4-7.2 5.4-2.9 11.7-6.3 13.9-7.6 5.9-3.3 22.3-12.1 27.5-14.7 2.5-1.2 4.7-2.4 5-2.7.3-.3 3-1.8 6-3.4 5.7-3 13.5-7.2 20.5-11.1 2.2-1.2 9.8-5.3 16.9-9.1 7.1-3.8 16.7-9 21.5-11.6 4.7-2.5 10-5.3 11.6-6.2 1.7-.8 8-4.2 14-7.5 6.1-3.2 11.1-5.8 11.3-5.6.1.1.2 32.8.2 72.6zm234.6 163.1c-.1 41.4-.4 75.8-.8 76.4-.4.6-1 2.6-1.2 4.5-1.1 7.2-7.7 21.2-13.8 29.3-7.8 10.3-21.7 21.8-33 27.2-2.9 1.4-6.2 3-7.3 3.6-1.1.6-4.7 2.5-8 4.2-3.3 1.7-6.1 3.4-6.3 3.8-.2.5-1.2.8-2.3.8-1 0-1.9.4-1.9.9s-1.2 1.4-2.7 2c-1.6.5-5.7 2.6-9.3 4.6-3.6 2-8.7 4.8-11.5 6.3-2.7 1.4-6.2 3.5-7.7 4.5-1.6 1-2.8 1.5-2.8 1.1 0-.4-.8-.1-1.7.7-1 .8-4.3 2.8-7.3 4.4-3 1.6-7.3 3.9-9.5 5.1-2.2 1.2-6.9 3.7-10.5 5.5-3.6 1.8-6.7 3.6-7 3.9-.3.3-3.2 1.9-6.5 3.5-3.3 1.7-6.2 3.2-6.5 3.5-.3.3-2.7 1.7-5.5 3-2.7 1.4-5.2 2.7-5.5 3-.3.3-2.5 1.5-5 2.8-2.5 1.2-6.5 3.4-9 4.8-7.4 4.1-11.4 6.2-12.4 6.2-.5 0-1.2.4-1.5.9-.6.8-1.6 1.4-14.6 8.3-4.4 2.3-8.4 4.6-9 5-.5.4-5.7 3.2-11.5 6.2-23.1 12.2-28.6 15.2-30.2 16.6-1 .8-1.8 1.2-1.8.9 0-.4-2.1.6-4.7 2.2-4.3 2.4-10.4 5.8-27.8 15.1-8.8 4.7-22.9 12.4-27 14.6-2.2 1.2-6.6 3.6-9.8 5.3-5.7 3-16.7 9-26 14.1-2.6 1.4-5.5 3.3-6.5 4.1-.9.8-1.9 1.5-2.2 1.5-.9.1-8.5 3.8-9 4.4-.3.3-3.2 1.9-6.5 3.5-3.3 1.7-6.2 3.2-6.5 3.6-.3.3-3.2 1.9-6.5 3.6-3.3 1.7-8.5 4.5-11.5 6.1-3 1.7-8 4.4-11 5.9-3 1.6-8 4.3-11 6-3 1.7-9.4 5.1-14.2 7.7-4.7 2.5-11.5 6.2-15 8.1-3.5 2-8.8 4.8-11.8 6.3s-5.7 2.9-6 3.2c-.3.3-2.7 1.7-5.5 3.1-6.2 3.2-15.9 8.5-20.2 11.1-1.8 1.1-3.3 1.6-3.3 1.1 0-.4-.4-.3-.8.3s-6.1 3.9-12.7 7.4c-6.6 3.5-12.2 6.6-12.5 6.9-.7.8-7.9 4.1-8.6 4-.4 0-1 .3-1.3.8-.3.5-5.1 3.3-10.6 6.3-5.5 2.9-12.4 6.6-15.2 8.2-3.6 1.9-5.3 2.4-5.4 1.6-.5-7.4 0-146.3.5-149.3 1.6-9.5 5.5-20.9 8.8-25.7 1-1.4 1.8-3.1 1.8-3.7 0-.6.5-1.1 1-1.1.6 0 1-.5 1-1.2 0-1.2 8.3-11.1 13.5-16.1 5-4.9 14.5-11.2 25-16.7 5.5-2.9 11.4-6 13-7 3-1.7 14.4-7.9 24-12.9 2.8-1.4 5.2-2.8 5.5-3.1.3-.3 4.1-2.3 8.5-4.5s8.2-4.3 8.5-4.6c.3-.3 5.2-3 11-6s10.7-5.6 11-5.9c.3-.3 1.6-1.1 3-1.7 1.4-.7 6.6-3.5 11.5-6.2 8.8-4.9 18.5-10.1 29.5-15.8 3-1.5 5.8-3.3 6.2-3.8.5-.7.8-.7.8 0 0 .6.3.6.8-.1.4-.6 5-3.3 10.2-6.1 8.3-4.4 19.1-10.2 25.5-13.7 1.1-.6 2.3-1.6 2.7-2.1.4-.6.8-.6.8-.2 0 .5 1.5 0 3.3-1.1 3.9-2.4 10.9-6.2 24.2-13.2 5.5-2.9 10.5-5.6 11-6 1.1-.8 21.9-11.9 25.2-13.4 1.3-.6 2.3-1.4 2.3-1.9 0-.4.9-.7 1.9-.7 1.1 0 2.1-.3 2.3-.8.2-.4 2.6-1.9 5.3-3.3l10.5-5.6c3-1.7 9.6-5.2 14.5-7.8 5-2.7 9.2-5.1 9.5-5.4.3-.3 1-.7 1.5-.8.6-.1 4.2-1.9 8-4.1 3.9-2.1 12-6.5 18-9.7 6.1-3.2 12.7-6.9 14.8-8.2 2-1.3 3.7-2 3.7-1.6 0 .5.4.2.8-.4.4-.7 4.2-3 8.3-5.1 4-2.2 10.1-5.4 13.4-7.2 3.3-1.8 8.9-4.9 12.5-6.8 3.6-1.9 9-4.8 12-6.4 3-1.7 6.9-3.8 8.5-4.7 1.7-.9 3.3-2.1 3.7-2.6.4-.6.8-.7.8-.3 0 .4 2.3-.6 5-2.2 2.8-1.6 5-2.6 5-2.2 0 .4.4.2.8-.4.4-.6 4.1-2.9 8.2-5.1 12.9-6.8 24.3-12.9 29-15.5 4.2-2.3 10.8-5.9 25.5-13.8 3.3-1.8 8.3-4.5 11-6 6.9-3.8 20.9-11.3 27.5-14.7 3-1.5 5.7-3.1 5.8-3.6.2-.4.9-.7 1.5-.7.7-.1 3.7-1.6 6.7-3.4 3-1.8 5.8-3.2 6.1-3 .3.2.5 34.2.5 75.6zm-.3 278.1c-.1 35.8-.2 65.6-.3 66.2-.3 1.2-.2 1.3.4 4.9.3 1.4 0 2.6-.5 2.6-.6 0-.6.7 0 1.9.6 1 .8 2 .6 2.3-.3.3-.8 2.5-1.1 4.9-.3 2.4-1.3 6.9-2.1 9.9l-1.8 6c-.5 2.4-5.3 11.4-8.9 16.9-3.8 5.6-12.3 15-18 19.8-2.8 2.4-15.5 10.3-16.4 10.3-.6 0-1.2.3-1.4.8-.1.4-2.5 1.9-5.3 3.3-2.7 1.4-8.1 4.3-12 6.4-3.8 2.1-9.5 5.1-12.5 6.7-3 1.6-7.3 4-9.5 5.2-6.8 3.7-23.5 12.7-28.9 15.5-2.8 1.4-5.3 2.8-5.6 3.1-.3.3-3.9 2.3-8 4.5l-12.5 6.7c-2.7 1.5-7 3.7-9.5 5-2.5 1.3-4.8 2.7-5.2 3.3-.5.7-.8.7-.8 0 0-.6-.3-.6-.8 0-.4.6-2.9 2.2-5.7 3.5-2.7 1.4-5.2 2.7-5.5 3-.3.3-3.5 2.1-7.2 4s-6.8 3.9-6.8 4.3c0 .5-.4.6-.8.3-.5-.3-2.4.5-4.3 1.6-3.5 2.2-12.7 7.1-23.9 12.9-3.6 1.9-6.7 3.7-6.8 4.2-.2.4-.8.5-1.3.1-.5-.3-.9-.1-.9.4s-.8 1.2-1.7 1.5c-1 .4-5.8 2.9-10.8 5.6-4.9 2.8-12.4 6.8-16.5 8.9-4.1 2.2-10 5.4-13 7.1-3 1.7-7.2 3.9-9.2 4.9-2.1.9-3.8 2-3.8 2.4 0 .5-.9.8-1.9.8-1.1 0-2.1.4-2.3.9-.1.5-1 1.1-1.8 1.3-.8.2-1.7.6-2 .9-.3.3-5.9 3.4-12.5 6.9-6.6 3.5-12.2 6.6-12.5 6.9-.9 1.1-10.2 5.2-10.7 4.7-.6-.6-.4-137.9.2-145.6 1.1-14.9 7.8-30.9 18-42.9 2.2-2.7 10.7-11.1 12.7-12.6 5.9-4.5 9-6.6 13.8-9 3-1.5 5.7-3 6-3.4.3-.3 3.4-2.1 7-3.9 3.6-1.7 9.2-4.7 12.5-6.5 3.3-1.8 8.9-4.9 12.5-6.7 3.6-1.9 6.8-3.9 7.2-4.5.4-.5.8-.7.8-.3 0 .4 2.7-.8 5.9-2.7 3.3-1.9 6.2-3.5 6.6-3.5.4 0 2-.9 3.6-2.1 1.6-1.1 2.9-1.7 2.9-1.2 0 .4.4.3.8-.3s5-3.3 10.2-6.1c5.2-2.8 11.5-6.1 14-7.5 2.5-1.4 8.6-4.7 13.5-7.3 5-2.7 12.6-6.8 17-9.2 4.4-2.4 9.4-5.1 11.2-5.8 1.7-.8 3.4-1.9 3.8-2.5.3-.5 1.5-1 2.6-1 1 0 1.9-.3 1.9-.8 0-.4 3.2-2.3 7-4.1 3.9-1.9 7-3.9 7-4.4 0-.6.3-.8.6-.5.3.4 3.7-1.1 7.4-3.3 3.8-2.1 7.4-3.9 8-3.9.5 0 1-.5 1-1 0-.6.9-1 2-1s2-.4 2-.9.8-1.1 1.8-1.4c.9-.3 5.3-2.6 9.7-5 12.4-6.8 27.8-15 30.2-16.2 1.3-.5 2.3-1.3 2.3-1.8 0-.4.9-.7 2-.7s2-.4 2-.8 1.2-1.3 2.8-1.9c1.5-.6 6.3-3.1 10.7-5.6 4.4-2.4 12.5-6.8 18-9.7 5.5-3 12.5-6.8 15.5-8.5 3-1.8 6-3 6.5-2.8.7.2.9 22.8.8 65.6z" />
</svg>
