<?xml version="1.0" standalone="no"?>
<!DOCTYPE svg PUBLIC "-//W3C//DTD SVG 20010904//EN"
 "http://www.w3.org/TR/2001/REC-SVG-20010904/DTD/svg10.dtd">
<svg version="1.0" xmlns="http://www.w3.org/2000/svg"
 width="1024.000000pt" height="1024.000000pt" viewBox="0 0 1024.000000 1024.000000"
 preserveAspectRatio="xMidYMid meet">
<metadata>
Created by potrace 1.14, written by Peter Selinger 2001-2017
</metadata>
<g transform="translate(0.000000,1024.000000) scale(0.100000,-0.100000)"
fill="#000000" stroke="none">
<path d="M6315 9905 c-27 -7 -79 -29 -115 -48 -36 -19 -94 -50 -130 -68 -36
-18 -67 -36 -70 -39 -3 -3 -36 -21 -75 -40 -38 -19 -72 -38 -75 -41 -3 -3 -23
-14 -45 -25 -64 -33 -216 -114 -264 -142 -24 -14 -79 -44 -121 -66 -43 -23
-144 -77 -226 -121 -81 -44 -157 -84 -168 -90 -12 -5 -23 -12 -26 -15 -3 -3
-21 -13 -40 -22 -19 -10 -59 -31 -87 -47 -29 -17 -53 -27 -53 -23 0 4 -4 3 -8
-3 -8 -11 -21 -19 -103 -61 -30 -15 -56 -30 -59 -33 -3 -4 -27 -17 -55 -30
-27 -13 -62 -33 -77 -43 -16 -11 -28 -16 -28 -11 0 4 -4 4 -8 -2 -7 -9 -92
-56 -207 -115 -27 -14 -52 -27 -55 -30 -3 -3 -18 -12 -35 -20 -16 -8 -33 -19
-37 -25 -4 -5 -8 -6 -8 -2 0 5 -12 0 -27 -11 -16 -10 -41 -26 -58 -34 -38 -19
-189 -99 -235 -125 -19 -11 -84 -46 -145 -78 -60 -32 -113 -63 -117 -69 -4 -6
-8 -8 -8 -4 0 4 -23 -6 -50 -22 -28 -17 -55 -30 -60 -30 -6 0 -10 -5 -10 -12
0 -6 -3 -9 -6 -6 -3 4 -36 -11 -72 -32 -37 -20 -103 -56 -147 -80 -89 -47
-174 -93 -314 -169 -52 -28 -97 -51 -102 -51 -4 0 -9 -3 -11 -7 -1 -5 -37 -25
-78 -47 -185 -95 -439 -234 -457 -248 -7 -6 -13 -7 -13 -2 0 5 -4 4 -8 -1 -4
-6 -29 -22 -57 -35 -27 -14 -52 -27 -55 -30 -3 -3 -35 -21 -72 -40 -37 -19
-68 -39 -68 -43 0 -5 -4 -6 -8 -3 -5 3 -24 -5 -43 -16 -19 -12 -56 -33 -84
-48 -179 -94 -299 -159 -352 -192 -18 -11 -33 -17 -33 -14 0 3 -16 -6 -36 -19
-20 -14 -41 -25 -47 -25 -6 0 -18 -6 -26 -14 -9 -7 -63 -37 -121 -67 -58 -29
-107 -56 -110 -59 -3 -3 -43 -25 -90 -49 -47 -25 -86 -48 -88 -53 -2 -4 -10
-8 -17 -8 -8 0 -37 -13 -65 -30 -28 -16 -55 -30 -60 -30 -4 0 -10 -3 -12 -7
-1 -5 -37 -25 -78 -46 -89 -46 -133 -70 -140 -77 -3 -3 -12 -6 -20 -8 -31 -7
-208 -132 -265 -189 -75 -73 -109 -115 -146 -178 -17 -27 -34 -57 -39 -65 -17
-28 -55 -127 -66 -175 -2 -5 -6 -21 -11 -35 -4 -14 -9 -470 -10 -1013 -3 -873
-2 -996 12 -1050 9 -34 19 -64 23 -67 4 -3 18 -22 32 -42 14 -21 28 -38 32
-38 4 0 13 -6 20 -13 14 -14 112 -78 138 -90 8 -4 27 -15 41 -25 15 -9 55 -34
90 -55 35 -21 84 -51 109 -67 25 -16 54 -34 65 -40 11 -6 36 -20 56 -33 19
-12 69 -42 110 -67 41 -24 92 -57 113 -72 21 -15 45 -28 52 -28 7 0 14 -4 16
-8 2 -5 28 -22 58 -39 125 -71 281 -81 405 -27 22 10 46 19 54 20 8 2 17 7 20
11 8 12 253 144 265 142 5 0 12 3 15 8 6 10 74 48 346 193 191 102 300 161
373 202 29 17 55 28 57 26 3 -2 5 -316 5 -697 0 -381 4 -700 9 -709 5 -9 15
-30 22 -47 24 -55 68 -102 132 -144 35 -22 67 -41 72 -41 5 0 18 -8 29 -18 12
-10 77 -52 146 -93 69 -41 127 -77 128 -81 2 -5 8 -8 14 -8 5 0 29 -13 53 -30
24 -17 46 -30 50 -30 3 0 33 -18 66 -40 33 -22 63 -40 65 -40 3 0 25 -13 49
-30 24 -16 47 -30 51 -30 4 0 15 -6 23 -14 30 -27 156 -84 201 -92 51 -8 133
-8 170 0 14 3 37 8 53 12 15 3 51 18 80 33 28 16 86 46 128 68 41 22 86 47
100 55 13 9 62 36 109 60 193 102 265 142 271 151 3 5 9 8 13 8 9 -1 40 12 46
18 3 3 19 13 36 22 114 59 231 123 243 132 7 6 19 12 25 13 7 1 30 13 52 26
21 14 46 27 54 30 13 5 15 -75 15 -684 0 -380 3 -692 7 -695 5 -2 8 -13 8 -23
0 -49 93 -166 151 -190 16 -7 29 -16 29 -21 0 -5 4 -9 10 -9 5 0 112 -64 237
-142 125 -78 238 -146 250 -152 13 -6 23 -14 23 -18 0 -5 4 -8 9 -8 5 0 52
-27 104 -60 53 -33 101 -60 106 -60 6 0 11 -4 11 -8 0 -10 105 -58 146 -68 56
-12 178 -11 223 3 55 16 188 80 196 94 4 5 10 7 15 4 4 -3 13 2 20 10 7 8 16
15 20 15 5 0 39 17 77 38 37 22 109 60 158 87 50 26 113 60 140 75 28 15 79
43 115 62 36 20 85 47 110 60 25 14 86 47 135 73 50 26 120 65 158 86 37 21
67 35 67 31 0 -4 4 -2 8 4 6 9 63 41 242 135 25 13 48 29 52 34 4 6 8 6 8 1 0
-5 9 -1 20 9 11 10 20 14 20 9 0 -5 4 -4 8 2 4 5 23 18 42 28 72 35 165 87
175 97 5 5 16 9 24 9 8 0 22 6 30 13 9 8 57 36 106 62 50 27 110 59 135 73 25
13 92 49 150 80 58 30 107 59 110 62 3 4 16 11 30 15 14 4 36 16 49 26 13 11
27 19 30 19 4 0 69 34 144 75 76 41 142 75 146 75 5 0 11 3 13 8 2 4 26 19 53
33 28 14 79 42 115 61 36 19 99 53 140 74 41 22 77 41 80 44 3 3 26 18 51 33
84 48 180 133 256 224 44 52 117 173 105 173 -4 0 -2 4 4 8 16 11 54 128 68
212 9 56 12 315 12 1045 l-1 970 -28 59 c-39 85 -86 125 -259 222 -38 22 -39
30 -8 62 17 18 34 32 38 33 22 1 172 216 175 250 1 11 4 19 8 19 4 0 10 10 14
23 4 12 9 27 11 32 12 37 35 127 41 165 4 25 7 486 7 1025 l1 980 -27 55 c-48
97 -51 99 -390 306 -53 33 -125 77 -160 98 -34 22 -65 38 -67 37 -2 -2 -7 1
-10 6 -6 9 -258 164 -345 213 -21 12 -51 23 -65 25 -14 2 -37 7 -51 12 -27 10
-112 9 -175 -1 -35 -6 -272 -118 -285 -135 -3 -3 -29 -17 -57 -30 -29 -14 -53
-29 -53 -34 0 -6 -3 -8 -6 -4 -3 3 -23 -4 -43 -16 -20 -12 -56 -33 -81 -45
-25 -13 -81 -43 -125 -68 -44 -24 -100 -54 -125 -66 -25 -12 -47 -24 -50 -27
-3 -4 -25 -16 -50 -29 -25 -12 -73 -38 -107 -57 l-63 -34 -1 37 c0 20 0 326 0
680 -1 385 -5 657 -11 680 -25 96 -67 150 -166 214 -37 23 -69 43 -72 43 -3 0
-19 9 -35 20 -49 33 -68 44 -102 62 -18 9 -33 20 -33 25 0 4 -4 8 -9 8 -6 0
-53 27 -106 60 -53 33 -100 60 -106 60 -5 0 -9 5 -9 10 0 6 -7 10 -15 10 -8 0
-15 4 -15 8 0 4 -12 13 -27 20 -51 23 -73 37 -73 44 0 5 -4 8 -9 8 -5 0 -45
22 -88 50 -81 51 -146 85 -198 102 -49 16 -185 18 -240 3z m445 -1476 c-1
-398 -3 -739 -5 -757 -13 -93 -52 -222 -67 -222 -6 0 -9 -3 -5 -6 17 -17 -97
-177 -184 -259 -77 -72 -202 -158 -225 -154 -4 0 -10 -3 -13 -8 -6 -8 -15 -13
-146 -83 -44 -24 -105 -56 -135 -73 -30 -16 -81 -44 -115 -61 -33 -17 -61 -34
-63 -38 -2 -5 -9 -8 -16 -8 -6 0 -28 -11 -49 -25 -20 -14 -37 -23 -37 -19 0 4
-8 0 -18 -9 -10 -10 -22 -14 -25 -10 -4 3 -7 1 -7 -5 0 -7 -9 -12 -19 -12 -11
0 -21 -4 -23 -8 -3 -8 -179 -106 -188 -105 -3 0 -17 -8 -32 -18 -14 -10 -28
-19 -31 -19 -3 0 -36 -17 -74 -39 -37 -21 -108 -60 -158 -86 -49 -27 -112 -61
-140 -76 -27 -15 -66 -35 -85 -45 -19 -10 -47 -26 -62 -36 -16 -11 -28 -16
-28 -13 0 3 -13 -3 -29 -14 -16 -12 -34 -21 -39 -21 -6 0 -17 -6 -24 -12 -7
-7 -38 -25 -68 -41 -30 -15 -86 -44 -125 -65 -38 -21 -104 -57 -145 -79 -125
-67 -192 -104 -250 -136 -30 -17 -82 -44 -115 -61 -33 -16 -62 -33 -65 -36 -3
-3 -25 -15 -50 -28 -67 -33 -173 -92 -187 -104 -7 -6 -13 -7 -13 -3 0 5 -8 2
-17 -6 -10 -8 -45 -28 -78 -44 -33 -17 -61 -33 -63 -37 -2 -5 -8 -8 -12 -8 -5
0 -32 -13 -60 -30 -28 -16 -57 -30 -65 -30 -7 0 -15 -4 -17 -8 -1 -5 -47 -32
-100 -60 -54 -29 -117 -63 -140 -76 -24 -13 -79 -42 -123 -66 -44 -23 -87 -49
-95 -56 -8 -7 -18 -13 -23 -13 -14 -1 -72 -34 -79 -45 -4 -6 -8 -7 -8 -2 0 5
-6 4 -12 -2 -13 -9 -85 -49 -223 -122 -38 -20 -95 -50 -125 -67 -30 -16 -91
-49 -135 -73 -44 -23 -102 -55 -130 -70 -27 -15 -90 -49 -140 -75 -49 -26
-103 -56 -120 -65 -16 -10 -64 -35 -105 -57 -41 -22 -111 -60 -155 -84 -44
-23 -93 -49 -110 -58 -16 -8 -32 -17 -35 -20 -3 -3 -32 -19 -65 -36 -33 -16
-62 -33 -63 -37 -2 -5 -12 -8 -22 -8 -10 0 -20 -3 -22 -7 -1 -5 -30 -22 -63
-39 -33 -18 -82 -44 -110 -59 -27 -15 -72 -39 -100 -53 -27 -15 -53 -31 -57
-37 -4 -5 -8 -7 -8 -2 0 4 -18 -4 -39 -17 -21 -14 -42 -22 -45 -19 -3 4 -6 2
-6 -4 0 -14 -52 -36 -59 -24 -8 12 -6 1413 2 1476 12 89 45 197 74 241 8 13
13 24 9 24 -10 0 135 199 146 200 3 0 22 15 41 34 52 50 151 117 252 171 50
26 117 62 150 80 33 18 96 52 140 75 44 24 101 56 128 72 26 15 59 31 72 34
14 3 25 10 25 14 0 4 8 10 18 13 9 4 44 21 77 40 33 18 96 53 140 76 44 24 86
48 92 54 7 5 13 6 13 1 0 -5 4 -4 8 1 4 6 25 20 47 31 102 54 161 87 173 97 6
5 12 6 12 1 0 -5 4 -4 8 1 4 6 39 26 77 45 39 19 72 38 75 41 5 7 56 34 115
63 17 8 63 33 102 55 40 23 108 59 150 82 43 22 105 56 138 74 33 19 85 46
115 62 30 15 57 30 60 33 3 3 25 16 50 28 25 12 77 39 115 60 39 21 106 58
150 82 44 23 103 55 130 70 28 15 91 49 140 75 50 27 121 65 158 87 38 21 71
38 73 38 2 0 46 23 96 51 51 29 135 74 187 102 52 27 108 58 125 68 17 10 56
30 86 45 30 15 57 30 60 33 3 3 34 21 70 39 36 18 88 45 115 60 28 16 89 49
137 75 47 25 101 55 120 65 19 11 79 43 134 72 54 29 117 63 139 76 59 33 223
121 275 147 25 12 47 24 50 27 3 3 30 18 60 34 57 30 135 72 205 111 22 12 98
53 169 91 71 38 167 90 215 116 47 25 100 53 116 62 17 8 80 42 140 75 61 32
111 58 113 56 1 -1 2 -328 2 -726z m2346 -1631 c-1 -414 -4 -758 -8 -764 -4
-6 -10 -26 -12 -45 -11 -72 -77 -212 -138 -293 -78 -103 -217 -218 -330 -272
-29 -14 -62 -30 -73 -36 -11 -6 -47 -25 -80 -42 -33 -17 -61 -34 -63 -38 -2
-5 -12 -8 -23 -8 -10 0 -19 -4 -19 -9 0 -5 -12 -14 -27 -20 -16 -5 -57 -26
-93 -46 -36 -20 -87 -48 -115 -63 -27 -14 -62 -35 -77 -45 -16 -10 -28 -15
-28 -11 0 4 -8 1 -17 -7 -10 -8 -43 -28 -73 -44 -30 -16 -73 -39 -95 -51 -22
-12 -69 -37 -105 -55 -36 -18 -67 -36 -70 -39 -3 -3 -32 -19 -65 -35 -33 -17
-62 -32 -65 -35 -3 -3 -27 -17 -55 -30 -27 -14 -52 -27 -55 -30 -3 -3 -25 -15
-50 -28 -25 -12 -65 -34 -90 -48 -74 -41 -114 -62 -124 -62 -5 0 -12 -4 -15
-9 -6 -8 -16 -14 -146 -83 -44 -23 -84 -46 -90 -50 -5 -4 -57 -32 -115 -62
-231 -122 -286 -152 -302 -166 -10 -8 -18 -12 -18 -9 0 4 -21 -6 -47 -22 -43
-24 -104 -58 -278 -151 -88 -47 -229 -124 -270 -146 -22 -12 -66 -36 -98 -53
-57 -30 -167 -90 -260 -141 -26 -14 -55 -33 -65 -41 -9 -8 -19 -15 -22 -15 -9
-1 -85 -38 -90 -44 -3 -3 -32 -19 -65 -35 -33 -17 -62 -32 -65 -36 -3 -3 -32
-19 -65 -36 -33 -17 -85 -45 -115 -61 -30 -17 -80 -44 -110 -59 -30 -16 -80
-43 -110 -60 -30 -17 -94 -51 -142 -77 -47 -25 -115 -62 -150 -81 -35 -20 -88
-48 -118 -63 -30 -15 -57 -29 -60 -32 -3 -3 -27 -17 -55 -31 -62 -32 -159 -85
-202 -111 -18 -11 -33 -16 -33 -11 0 4 -4 3 -8 -3 -4 -6 -61 -39 -127 -74 -66
-35 -122 -66 -125 -69 -7 -8 -79 -41 -86 -40 -4 0 -10 -3 -13 -8 -3 -5 -51
-33 -106 -63 -55 -29 -124 -66 -152 -82 -36 -19 -53 -24 -54 -16 -5 74 0 1463
5 1493 16 95 55 209 88 257 10 14 18 31 18 37 0 6 5 11 10 11 6 0 10 5 10 12
0 12 83 111 135 161 50 49 145 112 250 167 55 29 114 60 130 70 30 17 144 79
240 129 28 14 52 28 55 31 3 3 41 23 85 45 44 22 82 43 85 46 3 3 52 30 110
60 58 30 107 56 110 59 3 3 16 11 30 17 14 7 66 35 115 62 88 49 185 101 295
158 30 15 58 33 62 38 5 7 8 7 8 0 0 -6 3 -6 8 1 4 6 50 33 102 61 83 44 191
102 255 137 11 6 23 16 27 21 4 6 8 6 8 2 0 -5 15 0 33 11 39 24 109 62 242
132 55 29 105 56 110 60 11 8 219 119 252 134 13 6 23 14 23 19 0 4 9 7 19 7
11 0 21 3 23 8 2 4 26 19 53 33 28 15 75 40 105 56 30 17 96 52 145 78 50 27
92 51 95 54 3 3 10 7 15 8 6 1 42 19 80 41 39 21 120 65 180 97 61 32 127 69
148 82 20 13 37 20 37 16 0 -5 4 -2 8 4 4 7 42 30 83 51 40 22 101 54 134 72
33 18 89 49 125 68 36 19 90 48 120 64 30 17 69 38 85 47 17 9 33 21 37 26 4
6 8 7 8 3 0 -4 23 6 50 22 28 16 50 26 50 22 0 -4 4 -2 8 4 4 6 41 29 82 51
129 68 243 129 290 155 42 23 108 59 255 138 33 18 83 45 110 60 69 38 209
113 275 147 30 15 57 31 58 36 2 4 9 7 15 7 7 1 37 16 67 34 30 18 58 32 61
30 3 -2 5 -342 5 -756z m-3 -2781 c-1 -358 -2 -656 -3 -662 -3 -12 -2 -13 4
-49 3 -14 0 -26 -5 -26 -6 0 -6 -7 0 -19 6 -10 8 -20 6 -23 -3 -3 -8 -25 -11
-49 -3 -24 -13 -69 -21 -99 -9 -30 -17 -57 -18 -60 -5 -24 -53 -114 -89 -169
-38 -56 -123 -150 -180 -198 -28 -24 -155 -103 -164 -103 -6 0 -12 -3 -14 -8
-1 -4 -25 -19 -53 -33 -27 -14 -81 -43 -120 -64 -38 -21 -95 -51 -125 -67 -30
-16 -73 -40 -95 -52 -68 -37 -235 -127 -289 -155 -28 -14 -53 -28 -56 -31 -3
-3 -39 -23 -80 -45 -41 -22 -97 -52 -125 -67 -27 -15 -70 -37 -95 -50 -25 -13
-48 -27 -52 -33 -5 -7 -8 -7 -8 0 0 6 -3 6 -8 0 -4 -6 -29 -22 -57 -35 -27
-14 -52 -27 -55 -30 -3 -3 -35 -21 -72 -40 -37 -19 -68 -39 -68 -43 0 -5 -4
-6 -8 -3 -5 3 -24 -5 -43 -16 -35 -22 -127 -71 -239 -129 -36 -19 -67 -37 -68
-42 -2 -4 -8 -5 -13 -1 -5 3 -9 1 -9 -4 0 -5 -8 -12 -17 -15 -10 -4 -58 -29
-108 -56 -49 -28 -124 -68 -165 -89 -41 -22 -100 -54 -130 -71 -30 -17 -72
-39 -92 -49 -21 -9 -38 -20 -38 -24 0 -5 -9 -8 -19 -8 -11 0 -21 -4 -23 -9 -1
-5 -10 -11 -18 -13 -8 -2 -17 -6 -20 -9 -3 -3 -59 -34 -125 -69 -66 -35 -122
-66 -125 -69 -9 -11 -102 -52 -107 -47 -6 6 -4 1379 2 1456 11 149 78 309 180
429 22 27 107 111 127 126 59 45 90 66 138 90 30 15 57 30 60 34 3 3 34 21 70
39 36 17 92 47 125 65 33 18 89 49 125 67 36 19 68 39 72 45 4 5 8 7 8 3 0 -4
27 8 59 27 33 19 62 35 66 35 4 0 20 9 36 21 16 11 29 17 29 12 0 -4 4 -3 8 3
4 6 50 33 102 61 52 28 115 61 140 75 25 14 86 47 135 73 50 27 126 68 170 92
44 24 94 51 112 58 17 8 34 19 38 25 3 5 15 10 26 10 10 0 19 3 19 8 0 4 32
23 70 41 39 19 70 39 70 44 0 6 3 8 6 5 3 -4 37 11 74 33 38 21 74 39 80 39 5
0 10 5 10 10 0 6 9 10 20 10 11 0 20 4 20 9 0 5 8 11 18 14 9 3 53 26 97 50
124 68 278 150 302 162 13 5 23 13 23 18 0 4 9 7 20 7 11 0 20 4 20 8 0 4 12
13 28 19 15 6 63 31 107 56 44 24 125 68 180 97 55 30 125 68 155 85 30 18 60
30 65 28 7 -2 9 -228 8 -656z"/>
</g>
</svg>
