<svg xmlns="http://www.w3.org/2000/svg" width="550" height="115" fill="none" viewBox="0 0 144 30"><g clip-path="url(#a)"><path fill="#17CD8C" d="M18.71 29.81a1.4 1.4 0 0 0 1.38.02l9.49-5.14a2.81 2.81 0 0 0 1.57-2.43v-5.7a1 1 0 0 0-.52-.85l-.5-.3-.03-.02a2.69 2.69 0 0 0 1.05-2.08V7.6a1 1 0 0 0-.52-.86L28.11 5.2a1.41 1.41 0 0 0-1.37-.03l-2.9 1.57V2.59a.99.99 0 0 0-.52-.86L20.8.2a1.41 1.41 0 0 0-1.38-.02L1.57 9.8A2.82 2.82 0 0 0 0 12.24v5.7a1 1 0 0 0 .52.86l2.52 1.54a1.42 1.42 0 0 0 1.38.03l3.42-1.85v4.16a.99.99 0 0 0 .53.85l2.52 1.55c.21.12.46.19.7.18.24 0 .47-.05.67-.16l3.41-1.85v4.15a1 1 0 0 0 .52.86l2.52 1.55Zm-16-16.02c0-.93.56-1.77 1.48-2.28l16.94-9.14v4.39a2.6 2.6 0 0 1-1.27 2.15L9.4 14.55l-.2.12-6.5 3.5V13.8Zm7.84 4.73c0-.85.48-1.65 1.3-2.16l10.43-5.64c.07-.03.14-.08.2-.12l5.98-3.23v4.4c0 .92-.56 1.76-1.48 2.26l-.03.02-.21.09-9.49 5.14c-.09.04-.17.1-.25.15l-6.44 3.48v-4.39Zm7.83 4.74c0-.83.45-1.6 1.23-2.12l8.83-4.78v4.37c0 .92-.55 1.77-1.48 2.27l-8.59 4.65v-4.39Z"/></g><path fill="#111" d="m55.69 24-.03-11.14-5.52 9.22h-1.39l-5.52-9.07V24h-2.97V7.2h2.56l6.68 11.14L56.05 7.2h2.57l.02 16.8h-2.95Zm18.53-6.34c0 .21-.02.5-.05.9H64.11a3.6 3.6 0 0 0 1.37 2.25c.75.54 1.68.81 2.79.81 1.4 0 2.56-.46 3.48-1.39l1.6 1.85c-.57.69-1.3 1.2-2.18 1.56a8 8 0 0 1-2.98.53c-1.4 0-2.64-.28-3.72-.84a6.16 6.16 0 0 1-2.5-2.33c-.57-1-.86-2.14-.86-3.4 0-1.26.28-2.38.84-3.37a6.1 6.1 0 0 1 2.38-2.35 6.9 6.9 0 0 1 3.4-.84c1.26 0 2.37.28 3.34.84 1 .54 1.76 1.32 2.3 2.33.57.99.85 2.14.85 3.45Zm-6.48-4.22a3.56 3.56 0 0 0-3.65 3.12h7.27a3.54 3.54 0 0 0-1.17-2.26 3.58 3.58 0 0 0-2.45-.86Zm21.2-7.25V24h-2.89v-1.66a4.58 4.58 0 0 1-1.85 1.37 6.82 6.82 0 0 1-5.74-.36 5.9 5.9 0 0 1-2.3-2.3 7 7 0 0 1-.84-3.46c0-1.3.28-2.44.84-3.43a5.9 5.9 0 0 1 2.3-2.3 6.82 6.82 0 0 1 5.67-.39c.7.29 1.3.72 1.8 1.3V6.19h3ZM82.15 21.6c.72 0 1.37-.16 1.95-.48.57-.34 1.03-.8 1.37-1.42.33-.6.5-1.3.5-2.1s-.17-1.51-.5-2.12a3.69 3.69 0 0 0-3.32-1.9c-.72 0-1.36.17-1.94.5-.58.33-1.03.8-1.37 1.4-.33.6-.5 1.31-.5 2.11s.17 1.5.5 2.11c.34.61.8 1.08 1.37 1.42.58.32 1.22.48 1.94.48Zm14.87-10.56c1.89 0 3.33.46 4.32 1.37 1.01.9 1.51 2.25 1.51 4.08V24h-2.83v-1.56c-.37.56-.9 1-1.58 1.3-.67.28-1.49.43-2.45.43s-1.8-.16-2.52-.48a4.1 4.1 0 0 1-1.68-1.37 3.58 3.58 0 0 1-.58-2c0-1.14.43-2.06 1.28-2.75.86-.7 2.21-1.06 4.05-1.06h3.31v-.19c0-.9-.27-1.58-.81-2.06-.53-.48-1.32-.72-2.38-.72a7 7 0 0 0-2.13.33c-.7.23-1.28.54-1.76.94l-1.17-2.19c.67-.5 1.48-.9 2.42-1.17.95-.27 1.95-.41 3-.41Zm-.4 10.94c.75 0 1.41-.16 1.99-.5.59-.35 1-.85 1.24-1.49V18.5h-3.1c-1.72 0-2.58.57-2.58 1.7 0 .55.21.98.64 1.3a3 3 0 0 0 1.8.48Zm25.54-10.94c1.62 0 2.9.47 3.84 1.42.94.92 1.42 2.32 1.42 4.2V24h-3v-6.96c0-1.12-.25-1.96-.75-2.52-.5-.58-1.2-.86-2.13-.86-1.01 0-1.82.33-2.43 1-.6.66-.91 1.6-.91 2.84V24h-3v-6.96c0-1.12-.25-1.96-.74-2.52-.5-.58-1.21-.86-2.14-.86-1.02 0-1.84.32-2.45.98-.59.66-.89 1.6-.89 2.86V24h-3V11.18h2.86v1.64a4.66 4.66 0 0 1 1.8-1.32c.72-.3 1.52-.46 2.4-.46.96 0 1.8.18 2.54.55.76.35 1.35.88 1.78 1.59.53-.68 1.2-1.2 2.04-1.56a6.5 6.5 0 0 1 2.76-.58Zm13.27 0c1.88 0 3.32.46 4.32 1.37 1 .9 1.5 2.25 1.5 4.08V24h-2.82v-1.56c-.37.56-.9 1-1.59 1.3-.67.28-1.49.43-2.45.43s-1.8-.16-2.52-.48a4.1 4.1 0 0 1-1.68-1.37 3.58 3.58 0 0 1-.57-2c0-1.14.42-2.06 1.27-2.75.86-.7 2.22-1.06 4.06-1.06h3.3v-.19c0-.9-.26-1.58-.8-2.06s-1.33-.72-2.38-.72a7 7 0 0 0-2.14.33c-.69.23-1.27.54-1.75.94L130 12.62c.67-.5 1.48-.9 2.43-1.17.94-.27 1.94-.41 3-.41Zm-.41 10.94c.75 0 1.41-.16 1.99-.5.6-.35 1-.85 1.25-1.49V18.5h-3.1c-1.73 0-2.59.57-2.59 1.7 0 .55.22.98.65 1.3.43.32 1.03.48 1.8.48Z"/><defs><clipPath id="a"><path fill="#fff" d="M0 0h31.15v30H0z"/></clipPath></defs></svg>
