<svg width="16" height="5" viewBox="0 0 16 5" fill="none" xmlns="http://www.w3.org/2000/svg">
<path d="M2.16667 0.833313C1.24619 0.833313 0.5 1.57951 0.5 2.49998C0.5 3.42045 1.24619 4.16665 2.16667 4.16665C3.08714 4.16665 3.83333 3.42045 3.83333 2.49998C3.83333 1.57951 3.08714 0.833313 2.16667 0.833313Z" fill="#111111"/>
<path d="M6.33333 2.49998C6.33333 1.57951 7.07953 0.833313 8 0.833313C8.92047 0.833313 9.66667 1.57951 9.66667 2.49998C9.66667 3.42045 8.92047 4.16665 8 4.16665C7.07953 4.16665 6.33333 3.42045 6.33333 2.49998Z" fill="#111111"/>
<path d="M12.1667 2.49998C12.1667 1.57951 12.9129 0.833313 13.8333 0.833313C14.7538 0.833313 15.5 1.57951 15.5 2.49998C15.5 3.42045 14.7538 4.16665 13.8333 4.16665C12.9129 4.16665 12.1667 3.42045 12.1667 2.49998Z" fill="#111111"/>
</svg>
