<svg xmlns="http://www.w3.org/2000/svg" width="16" height="16" fill="none"><path fill="#FCFCFC" d="M13.4333 8.46001v-.77336c-.0035-.04804.0057-.09613.0268-.13945.0211-.04331.0532-.08032.0932-.10721L15.64 6.05998l-2.1667-3.68664-2.22 1.15332c-.0391.02421-.0841.03702-.13.03702-.046 0-.091-.01281-.13-.03702-.1895-.12146-.3853-.23273-.5867-.33334-.0402-.02161-.0742-.05319-.0987-.09171-.0245-.03852-.0387-.08271-.0413-.1283L10.1333.473312H5.85991L5.72658 2.97331c-.00255.04559-.01676.08978-.04127.1283-.02452.03852-.05851.0701-.09873.09171-.20134.10061-.39717.21188-.58667.33334-.03904.02421-.08406.03702-.13.03702-.04594 0-.09096-.01281-.13-.03702L2.51989 2.37334.35321 6.05998l2.11335 1.38001c.03996.02689.07211.0639.09318.10721.02108.04332.03033.09141.02682.13945v.77336c.00284.04795-.00671.09584-.02773.13903-.02101.0432-.05279.08026-.09227.10763L.379878 10.0867l2.166682 3.6799L4.76657 12.62c.03904-.0242.08407-.037.13-.037.04594 0 .09096.0128.13.037.18799.1239.38398.2353.58668.3333.04116.0222.07576.0549.10033.0946.02457.0398.03825.0853.03967.1321l.13333 2.4933h4.27332l.1334-2.4933c.0014-.0468.0151-.0923.0396-.1321.0246-.0397.0592-.0724.1004-.0946.2027-.098.3987-.2094.5867-.3333.039-.0242.084-.037.13-.037.0459 0 .0909.0128.13.037l2.22 1.1466 2.1667-3.6799L13.58 8.70667c-.0445-.02406-.0815-.05968-.1074-.10311-.0258-.04343-.0394-.09303-.0393-.14355ZM7.99993 10.46c-.47656.0013-.94279-.1389-1.33959-.4028-.39679-.26397-.70629-.63975-.88927-1.07978-.18299-.44003-.23121-.9245-.13856-1.39197.09265-.46746.322-.8969.65898-1.23388.33698-.33698.76642-.56633 1.2339-.65898.46747-.09265.95192-.04443 1.39195.13855.44004.18298.81585.49249 1.07979.88928.26397.3968.40417.863.40277 1.33956.0018.31629-.059.62985-.1788.92257-.1198.29272-.29633.55885-.51937.78312-.22304.22428-.48821.40223-.78026.52373-.29206.1214-.60524.1839-.92154.1839V10.46Z"/></svg>